<svg xmlns="http://www.w3.org/2000/svg" xmlns:xlink="http://www.w3.org/1999/xlink" contentStyleType="text/css" height="1659px" preserveAspectRatio="none" style="width:1856px;height:1659px;background:#FFFFFF;" version="1.1" viewBox="0 0 1856 1659" width="1856px" zoomAndPan="magnify"><title>Add SubscriptionPlan Class Diagram</title><defs/><g><text fill="#000000" font-family="sans-serif" font-size="14" font-weight="bold" lengthAdjust="spacing" textLength="247.3857" x="797.3071" y="24.5332">Add SubscriptionPlan Class Diagram</text><!--cluster pkgAddSubscriptionPlan--><g id="cluster_pkgAddSubscriptionPlan"><rect fill="none" height="1608" rx="2.5" ry="2.5" style="stroke:#181818;stroke-width:1;" width="1843" x="7" y="45.6094"/><path d="M184.2275,45.6094 L184.2275,56.2188 L174.2275,66.2188 L7,66.2188 " fill="none" style="stroke:#181818;stroke-width:1;"/><text fill="#000000" font-family="sans-serif" font-size="14" font-weight="bold" lengthAdjust="spacing" textLength="167.2275" x="10" y="61.1426">pkgAddSubscriptionPlan</text></g><!--class SubscriptionPlansController--><g id="elem_SubscriptionPlansController"><rect codeLine="172" fill="#F1F1F1" height="234.7969" id="SubscriptionPlansController" rx="2.5" ry="2.5" style="stroke:#181818;stroke-width:0.5;" width="545.415" x="867.5" y="200.6094"/><ellipse cx="1049.582" cy="221.9609" fill="#ADD1B2" rx="11" ry="11" style="stroke:#181818;stroke-width:1;"/><path d="M1052.3477,217.8359 Q1052.5039,217.6172 1052.6914,217.5078 Q1052.8789,217.3984 1053.0977,217.3984 Q1053.4727,217.3984 1053.707,217.6641 Q1053.9414,217.9141 1053.9414,218.5234 L1053.9414,219.9766 Q1053.9414,220.5859 1053.707,220.8516 Q1053.4727,221.1172 1053.0977,221.1172 Q1052.7539,221.1172 1052.5508,220.9141 Q1052.3477,220.7266 1052.2383,220.2109 Q1052.1914,219.8516 1052.0039,219.6641 Q1051.6758,219.2891 1051.0664,219.0703 Q1050.457,218.8516 1049.832,218.8516 Q1049.0664,218.8516 1048.4258,219.1797 Q1047.8008,219.5078 1047.3008,220.2578 Q1046.8164,221.0078 1046.8164,222.0391 L1046.8164,223.1328 Q1046.8164,224.3672 1047.707,225.1953 Q1048.5977,226.0078 1050.1914,226.0078 Q1051.1289,226.0078 1051.7852,225.7578 Q1052.1758,225.6016 1052.5977,225.1641 Q1052.8633,224.8984 1053.0039,224.8203 Q1053.1602,224.7422 1053.3633,224.7422 Q1053.6914,224.7422 1053.9414,225.0078 Q1054.207,225.2578 1054.207,225.6016 Q1054.207,225.9453 1053.8633,226.3516 Q1053.3633,226.9297 1052.5664,227.2578 Q1051.4883,227.7109 1050.1914,227.7109 Q1048.6758,227.7109 1047.4727,227.0859 Q1046.4883,226.5859 1045.8008,225.5234 Q1045.1133,224.4453 1045.1133,223.1641 L1045.1133,222.0078 Q1045.1133,220.6797 1045.7227,219.5391 Q1046.3477,218.3828 1047.4414,217.7734 Q1048.5352,217.1484 1049.7695,217.1484 Q1050.5039,217.1484 1051.1445,217.3203 Q1051.8008,217.4766 1052.3477,217.8359 Z " fill="#000000"/><text fill="#000000" font-family="sans-serif" font-size="12" font-style="italic" lengthAdjust="spacing" textLength="62.7012" x="1125.1069" y="218.0664">&#171;controller&#187;</text><text fill="#000000" font-family="sans-serif" font-size="14" lengthAdjust="spacing" textLength="172.751" x="1070.082" y="235.2363">SubscriptionPlansController</text><line style="stroke:#181818;stroke-width:0.5;" x1="868.5" x2="1411.915" y1="243.3125" y2="243.3125"/><text fill="#000000" font-family="sans-serif" font-size="14" lengthAdjust="spacing" textLength="336.1777" x="873.5" y="261.8457">-_subscriptionPlanRepo : ISubscriptionPlanRepository</text><text fill="#000000" font-family="sans-serif" font-size="14" lengthAdjust="spacing" textLength="218.6338" x="873.5" y="279.4551">-_userRepository : IUserRepository</text><line style="stroke:#181818;stroke-width:0.5;" x1="868.5" x2="1411.915" y1="286.5313" y2="286.5313"/><text fill="#000000" font-family="sans-serif" font-size="14" lengthAdjust="spacing" textLength="152.127" x="873.5" y="305.0645">+GetSubscriptionPlans()</text><text fill="#000000" font-family="sans-serif" font-size="14" lengthAdjust="spacing" textLength="394.9053" x="873.5" y="322.6738">+GetAllSubsciptionPlan(index : int, size : int, keySearch : string)</text><text fill="#000000" font-family="sans-serif" font-size="14" lengthAdjust="spacing" textLength="220.6162" x="873.5" y="340.2832">+GetSubsciptionPlanById(id : Guid)</text><text fill="#000000" font-family="sans-serif" font-size="14" lengthAdjust="spacing" textLength="408.96" x="873.5" y="357.8926">+AddSubsciptionPlan(newSubscription : AddSubscriptionPlanDto)</text><text fill="#000000" font-family="sans-serif" font-size="14" lengthAdjust="spacing" textLength="533.415" x="873.5" y="375.502">+AddSubsciptionPlanUserClerk(newSubscription : AddSubscriptionPlanUserClerkDto)</text><text fill="#000000" font-family="sans-serif" font-size="14" lengthAdjust="spacing" textLength="219.0713" x="873.5" y="393.1113">+UpdateSubscriptionPlan(id : Guid,</text><text fill="#000000" font-family="sans-serif" font-size="14" lengthAdjust="spacing" textLength="303.5225" x="873.5" y="410.7207">updateSubsciption : UpdateSubscriptionPlanDto)</text><text fill="#000000" font-family="sans-serif" font-size="14" lengthAdjust="spacing" textLength="210.5059" x="873.5" y="428.3301">+DeleteSubsciptionPlan(id : Guid)</text></g><!--class ControllerBase--><g id="elem_ControllerBase"><rect codeLine="19" fill="#F1F1F1" height="58.7031" id="ControllerBase" rx="2.5" ry="2.5" style="stroke:#181818;stroke-width:0.5;" width="124.5996" x="1077.5" y="81.6094"/><ellipse cx="1092.5" cy="102.9609" fill="#A9DCDF" rx="11" ry="11" style="stroke:#181818;stroke-width:1;"/><path d="M1094.6875,104.7266 L1090.5469,104.7266 L1090.125,105.7578 L1090.5469,105.7578 Q1091.1563,105.7578 1091.4219,105.9922 Q1091.6875,106.2266 1091.6875,106.6172 Q1091.6875,106.9922 1091.4219,107.2266 Q1091.1563,107.4609 1090.5469,107.4609 L1088.25,107.4609 Q1087.6406,107.4609 1087.3906,107.2266 Q1087.125,106.9922 1087.125,106.6016 Q1087.125,106.2266 1087.4063,105.9922 Q1087.6719,105.7422 1088.2969,105.7578 L1090.9688,99.1016 L1089.8594,99.1016 Q1089.25,99.1016 1088.9844,98.8672 Q1088.7188,98.6328 1088.7188,98.2422 Q1088.7188,97.8672 1088.9844,97.6328 Q1089.25,97.3984 1089.8594,97.3984 L1093.5313,97.3984 L1096.9219,105.7578 Q1097.5156,105.7578 1097.7031,105.8984 Q1098.0938,106.1641 1098.0938,106.6172 Q1098.0938,106.9922 1097.8281,107.2266 Q1097.5781,107.4609 1096.9688,107.4609 L1094.6719,107.4609 Q1094.0625,107.4609 1093.7969,107.2266 Q1093.5313,106.9922 1093.5313,106.6016 Q1093.5313,106.2266 1093.7969,105.9922 Q1094.0625,105.7578 1094.6719,105.7578 L1095.0938,105.7578 L1094.6875,104.7266 Z M1093.9688,103.0234 L1092.6094,99.6484 L1091.2344,103.0234 L1093.9688,103.0234 Z " fill="#000000"/><text fill="#000000" font-family="sans-serif" font-size="12" font-style="italic" lengthAdjust="spacing" textLength="62.7012" x="1121.4492" y="99.0664">&#171;controller&#187;</text><text fill="#000000" font-family="sans-serif" font-size="14" font-style="italic" lengthAdjust="spacing" textLength="92.5996" x="1106.5" y="116.2363">ControllerBase</text><line style="stroke:#181818;stroke-width:0.5;" x1="1078.5" x2="1201.0996" y1="124.3125" y2="124.3125"/><line style="stroke:#181818;stroke-width:0.5;" x1="1078.5" x2="1201.0996" y1="132.3125" y2="132.3125"/></g><!--class AdminAuthorizationAttribute--><g id="elem_AdminAuthorizationAttribute"><rect codeLine="220" fill="#F1F1F1" height="83.2188" id="AdminAuthorizationAttribute" rx="2.5" ry="2.5" style="stroke:#181818;stroke-width:0.5;" width="420.126" x="1414" y="615.6094"/><ellipse cx="1533.0444" cy="631.6094" fill="#ADD1B2" rx="11" ry="11" style="stroke:#181818;stroke-width:1;"/><path d="M1535.8101,627.4844 Q1535.9663,627.2656 1536.1538,627.1563 Q1536.3413,627.0469 1536.5601,627.0469 Q1536.9351,627.0469 1537.1694,627.3125 Q1537.4038,627.5625 1537.4038,628.1719 L1537.4038,629.625 Q1537.4038,630.2344 1537.1694,630.5 Q1536.9351,630.7656 1536.5601,630.7656 Q1536.2163,630.7656 1536.0132,630.5625 Q1535.8101,630.375 1535.7007,629.8594 Q1535.6538,629.5 1535.4663,629.3125 Q1535.1382,628.9375 1534.5288,628.7188 Q1533.9194,628.5 1533.2944,628.5 Q1532.5288,628.5 1531.8882,628.8281 Q1531.2632,629.1563 1530.7632,629.9063 Q1530.2788,630.6563 1530.2788,631.6875 L1530.2788,632.7813 Q1530.2788,634.0156 1531.1694,634.8438 Q1532.0601,635.6563 1533.6538,635.6563 Q1534.5913,635.6563 1535.2476,635.4063 Q1535.6382,635.25 1536.0601,634.8125 Q1536.3257,634.5469 1536.4663,634.4688 Q1536.6226,634.3906 1536.8257,634.3906 Q1537.1538,634.3906 1537.4038,634.6563 Q1537.6694,634.9063 1537.6694,635.25 Q1537.6694,635.5938 1537.3257,636 Q1536.8257,636.5781 1536.0288,636.9063 Q1534.9507,637.3594 1533.6538,637.3594 Q1532.1382,637.3594 1530.9351,636.7344 Q1529.9507,636.2344 1529.2632,635.1719 Q1528.5757,634.0938 1528.5757,632.8125 L1528.5757,631.6563 Q1528.5757,630.3281 1529.1851,629.1875 Q1529.8101,628.0313 1530.9038,627.4219 Q1531.9976,626.7969 1533.2319,626.7969 Q1533.9663,626.7969 1534.6069,626.9688 Q1535.2632,627.125 1535.8101,627.4844 Z " fill="#000000"/><text fill="#000000" font-family="sans-serif" font-size="14" lengthAdjust="spacing" textLength="173.5371" x="1553.5444" y="637.3379">AdminAuthorizationAttribute</text><line style="stroke:#181818;stroke-width:0.5;" x1="1415" x2="1833.126" y1="647.6094" y2="647.6094"/><text fill="#000000" font-family="sans-serif" font-size="14" lengthAdjust="spacing" textLength="194.7559" x="1420" y="666.1426">-string _requiredRole = "admin"</text><line style="stroke:#181818;stroke-width:0.5;" x1="1415" x2="1833.126" y1="673.2188" y2="673.2188"/><text fill="#000000" font-family="sans-serif" font-size="14" lengthAdjust="spacing" textLength="408.126" x="1420" y="691.752">+OnAuthorizationAsync(context: AuthorizationFilterContext): Task</text></g><!--class IRepositoryBase--><g id="elem_IRepositoryBase"><rect codeLine="42" fill="#F1F1F1" height="146.75" id="IRepositoryBase" rx="2.5" ry="2.5" style="stroke:#181818;stroke-width:0.5;" width="178.1406" x="442" y="244.6094"/><ellipse cx="471.4422" cy="265.9609" fill="#B4A7E5" rx="11" ry="11" style="stroke:#181818;stroke-width:1;"/><path d="M472.3953,262.6016 L472.3953,269.2578 L474.1141,269.2578 Q474.7234,269.2578 474.9891,269.4922 Q475.2547,269.7266 475.2547,270.1172 Q475.2547,270.4922 474.9891,270.7266 Q474.7234,270.9609 474.1141,270.9609 L468.9734,270.9609 Q468.3641,270.9609 468.0984,270.7266 Q467.8328,270.4922 467.8328,270.1016 Q467.8328,269.7266 468.0984,269.4922 Q468.3641,269.2578 468.9734,269.2578 L470.6922,269.2578 L470.6922,262.6016 L468.9734,262.6016 Q468.3641,262.6016 468.0984,262.3672 Q467.8328,262.1328 467.8328,261.7422 Q467.8328,261.3672 468.0984,261.1328 Q468.3641,260.8984 468.9734,260.8984 L474.1141,260.8984 Q474.7234,260.8984 474.9891,261.1328 Q475.2547,261.3672 475.2547,261.7422 Q475.2547,262.1328 474.9891,262.3672 Q474.7234,262.6016 474.1141,262.6016 L472.3953,262.6016 Z " fill="#000000"/><text fill="#000000" font-family="sans-serif" font-size="12" font-style="italic" lengthAdjust="spacing" textLength="68.7012" x="505.6594" y="262.0664">&#171;irepository&#187;</text><text fill="#000000" font-family="sans-serif" font-size="14" font-style="italic" lengthAdjust="spacing" textLength="102.7168" x="488.6516" y="279.2363">IRepositoryBase</text><rect fill="#FFFFFF" height="17.0938" style="stroke:#181818;stroke-width:1;stroke-dasharray:2.0,2.0;" width="9.3301" x="613.8105" y="241.6094"/><text fill="#000000" font-family="sans-serif" font-size="12" font-style="italic" lengthAdjust="spacing" textLength="7.3301" x="614.8105" y="255.0664">T</text><line style="stroke:#181818;stroke-width:0.5;" x1="443" x2="619.1406" y1="287.3125" y2="287.3125"/><line style="stroke:#181818;stroke-width:0.5;" x1="443" x2="619.1406" y1="295.3125" y2="295.3125"/><text fill="#000000" font-family="sans-serif" font-size="14" lengthAdjust="spacing" textLength="92.2031" x="448" y="313.8457">+Add(entity: T)</text><text fill="#000000" font-family="sans-serif" font-size="14" lengthAdjust="spacing" textLength="112.4375" x="448" y="331.4551">+Update(entity: T)</text><text fill="#000000" font-family="sans-serif" font-size="14" lengthAdjust="spacing" textLength="107.7617" x="448" y="349.0645">+Delete(entity: T)</text><text fill="#000000" font-family="sans-serif" font-size="14" lengthAdjust="spacing" textLength="166.1406" x="448" y="366.6738">+GetSingleByCondition(...)</text><text fill="#000000" font-family="sans-serif" font-size="14" lengthAdjust="spacing" textLength="67.293" x="448" y="384.2832">+GetAll(...)</text></g><!--class RepositoryBase--><g id="elem_RepositoryBase"><rect codeLine="53" fill="#F1F1F1" height="93.9219" id="RepositoryBase" rx="2.5" ry="2.5" style="stroke:#181818;stroke-width:0.5;" width="175.4268" x="156.5" y="610.1094"/><ellipse cx="186.4713" cy="631.4609" fill="#ADD1B2" rx="11" ry="11" style="stroke:#181818;stroke-width:1;"/><path d="M189.2369,627.3359 Q189.3932,627.1172 189.5807,627.0078 Q189.7682,626.8984 189.9869,626.8984 Q190.3619,626.8984 190.5963,627.1641 Q190.8307,627.4141 190.8307,628.0234 L190.8307,629.4766 Q190.8307,630.0859 190.5963,630.3516 Q190.3619,630.6172 189.9869,630.6172 Q189.6432,630.6172 189.44,630.4141 Q189.2369,630.2266 189.1275,629.7109 Q189.0807,629.3516 188.8932,629.1641 Q188.565,628.7891 187.9557,628.5703 Q187.3463,628.3516 186.7213,628.3516 Q185.9557,628.3516 185.315,628.6797 Q184.69,629.0078 184.19,629.7578 Q183.7057,630.5078 183.7057,631.5391 L183.7057,632.6328 Q183.7057,633.8672 184.5963,634.6953 Q185.4869,635.5078 187.0807,635.5078 Q188.0182,635.5078 188.6744,635.2578 Q189.065,635.1016 189.4869,634.6641 Q189.7525,634.3984 189.8932,634.3203 Q190.0494,634.2422 190.2525,634.2422 Q190.5807,634.2422 190.8307,634.5078 Q191.0963,634.7578 191.0963,635.1016 Q191.0963,635.4453 190.7525,635.8516 Q190.2525,636.4297 189.4557,636.7578 Q188.3775,637.2109 187.0807,637.2109 Q185.565,637.2109 184.3619,636.5859 Q183.3775,636.0859 182.69,635.0234 Q182.0025,633.9453 182.0025,632.6641 L182.0025,631.5078 Q182.0025,630.1797 182.6119,629.0391 Q183.2369,627.8828 184.3307,627.2734 Q185.4244,626.6484 186.6588,626.6484 Q187.3932,626.6484 188.0338,626.8203 Q188.69,626.9766 189.2369,627.3359 Z " fill="#000000"/><text fill="#000000" font-family="sans-serif" font-size="12" font-style="italic" lengthAdjust="spacing" textLength="66.0352" x="220.1942" y="627.5664">&#171;repository&#187;</text><text fill="#000000" font-family="sans-serif" font-size="14" lengthAdjust="spacing" textLength="98.8271" x="203.7982" y="644.7363">RepositoryBase</text><rect fill="#FFFFFF" height="17.0938" style="stroke:#181818;stroke-width:1;stroke-dasharray:2.0,2.0;" width="9.3301" x="325.5967" y="607.1094"/><text fill="#000000" font-family="sans-serif" font-size="12" font-style="italic" lengthAdjust="spacing" textLength="7.3301" x="326.5967" y="620.5664">T</text><line style="stroke:#181818;stroke-width:0.5;" x1="157.5" x2="330.9268" y1="652.8125" y2="652.8125"/><text fill="#000000" font-family="sans-serif" font-size="14" lengthAdjust="spacing" textLength="163.4268" x="162.5" y="671.3457">#_context : InSyncContext</text><text fill="#000000" font-family="sans-serif" font-size="14" lengthAdjust="spacing" textLength="98.8408" x="162.5" y="688.9551">-disposed : bool</text><line style="stroke:#181818;stroke-width:0.5;" x1="157.5" x2="330.9268" y1="696.0313" y2="696.0313"/></g><!--class DbContext--><g id="elem_DbContext"><rect codeLine="21" fill="#F1F1F1" height="58.7031" id="DbContext" rx="2.5" ry="2.5" style="stroke:#181818;stroke-width:0.5;" width="98.1445" x="23" y="627.6094"/><ellipse cx="38" cy="648.9609" fill="#A9DCDF" rx="11" ry="11" style="stroke:#181818;stroke-width:1;"/><path d="M40.1875,650.7266 L36.0469,650.7266 L35.625,651.7578 L36.0469,651.7578 Q36.6563,651.7578 36.9219,651.9922 Q37.1875,652.2266 37.1875,652.6172 Q37.1875,652.9922 36.9219,653.2266 Q36.6563,653.4609 36.0469,653.4609 L33.75,653.4609 Q33.1406,653.4609 32.8906,653.2266 Q32.625,652.9922 32.625,652.6016 Q32.625,652.2266 32.9063,651.9922 Q33.1719,651.7422 33.7969,651.7578 L36.4688,645.1016 L35.3594,645.1016 Q34.75,645.1016 34.4844,644.8672 Q34.2188,644.6328 34.2188,644.2422 Q34.2188,643.8672 34.4844,643.6328 Q34.75,643.3984 35.3594,643.3984 L39.0313,643.3984 L42.4219,651.7578 Q43.0156,651.7578 43.2031,651.8984 Q43.5938,652.1641 43.5938,652.6172 Q43.5938,652.9922 43.3281,653.2266 Q43.0781,653.4609 42.4688,653.4609 L40.1719,653.4609 Q39.5625,653.4609 39.2969,653.2266 Q39.0313,652.9922 39.0313,652.6016 Q39.0313,652.2266 39.2969,651.9922 Q39.5625,651.7578 40.1719,651.7578 L40.5938,651.7578 L40.1875,650.7266 Z M39.4688,649.0234 L38.1094,645.6484 L36.7344,649.0234 L39.4688,649.0234 Z " fill="#000000"/><text fill="#000000" font-family="sans-serif" font-size="12" font-style="italic" lengthAdjust="spacing" textLength="56.0332" x="57.0557" y="645.0664">&#171;abstract&#187;</text><text fill="#000000" font-family="sans-serif" font-size="14" font-style="italic" lengthAdjust="spacing" textLength="66.1445" x="52" y="662.2363">DbContext</text><line style="stroke:#181818;stroke-width:0.5;" x1="24" x2="120.1445" y1="670.3125" y2="670.3125"/><line style="stroke:#181818;stroke-width:0.5;" x1="24" x2="120.1445" y1="678.3125" y2="678.3125"/></g><!--class InSyncContext--><g id="elem_InSyncContext"><rect codeLine="26" fill="#F1F1F1" height="234.7969" id="InSyncContext" rx="2.5" ry="2.5" style="stroke:#181818;stroke-width:0.5;" width="335.333" x="23.5" y="878.6094"/><ellipse cx="141.3926" cy="899.9609" fill="#ADD1B2" rx="11" ry="11" style="stroke:#181818;stroke-width:1;"/><path d="M144.1582,895.8359 Q144.3145,895.6172 144.502,895.5078 Q144.6895,895.3984 144.9082,895.3984 Q145.2832,895.3984 145.5176,895.6641 Q145.752,895.9141 145.752,896.5234 L145.752,897.9766 Q145.752,898.5859 145.5176,898.8516 Q145.2832,899.1172 144.9082,899.1172 Q144.5645,899.1172 144.3613,898.9141 Q144.1582,898.7266 144.0488,898.2109 Q144.002,897.8516 143.8145,897.6641 Q143.4863,897.2891 142.877,897.0703 Q142.2676,896.8516 141.6426,896.8516 Q140.877,896.8516 140.2363,897.1797 Q139.6113,897.5078 139.1113,898.2578 Q138.627,899.0078 138.627,900.0391 L138.627,901.1328 Q138.627,902.3672 139.5176,903.1953 Q140.4082,904.0078 142.002,904.0078 Q142.9395,904.0078 143.5957,903.7578 Q143.9863,903.6016 144.4082,903.1641 Q144.6738,902.8984 144.8145,902.8203 Q144.9707,902.7422 145.1738,902.7422 Q145.502,902.7422 145.752,903.0078 Q146.0176,903.2578 146.0176,903.6016 Q146.0176,903.9453 145.6738,904.3516 Q145.1738,904.9297 144.377,905.2578 Q143.2988,905.7109 142.002,905.7109 Q140.4863,905.7109 139.2832,905.0859 Q138.2988,904.5859 137.6113,903.5234 Q136.9238,902.4453 136.9238,901.1641 L136.9238,900.0078 Q136.9238,898.6797 137.5332,897.5391 Q138.1582,896.3828 139.252,895.7734 Q140.3457,895.1484 141.5801,895.1484 Q142.3145,895.1484 142.9551,895.3203 Q143.6113,895.4766 144.1582,895.8359 Z " fill="#000000"/><text fill="#000000" font-family="sans-serif" font-size="12" font-style="italic" lengthAdjust="spacing" textLength="52.0371" x="181.3979" y="896.0664">&#171;context&#187;</text><text fill="#000000" font-family="sans-serif" font-size="14" lengthAdjust="spacing" textLength="91.0479" x="161.8926" y="913.2363">InSyncContext</text><line style="stroke:#181818;stroke-width:0.5;" x1="24.5" x2="357.833" y1="921.3125" y2="921.3125"/><text fill="#000000" font-family="sans-serif" font-size="14" lengthAdjust="spacing" textLength="152.1338" x="29.5" y="939.8457">+Assets : DbSet&lt;Asset&gt;</text><text fill="#000000" font-family="sans-serif" font-size="14" lengthAdjust="spacing" textLength="323.333" x="29.5" y="957.4551">+CategoryDocuments : DbSet&lt;CategoryDocument&gt;</text><text fill="#000000" font-family="sans-serif" font-size="14" lengthAdjust="spacing" textLength="295.2783" x="29.5" y="975.0645">+CustomerReviews : DbSet&lt;CustomerReview&gt;</text><text fill="#000000" font-family="sans-serif" font-size="14" lengthAdjust="spacing" textLength="209.7197" x="29.5" y="992.6738">+Documents : DbSet&lt;Document&gt;</text><text fill="#000000" font-family="sans-serif" font-size="14" lengthAdjust="spacing" textLength="147.499" x="29.5" y="1010.2832">+Pages : DbSet&lt;Page&gt;</text><text fill="#000000" font-family="sans-serif" font-size="14" lengthAdjust="spacing" textLength="169.251" x="29.5" y="1027.8926">+Projects : DbSet&lt;Project&gt;</text><text fill="#000000" font-family="sans-serif" font-size="14" lengthAdjust="spacing" textLength="192.6162" x="29.5" y="1045.502">+Scenarios : DbSet&lt;Scenario&gt;</text><text fill="#000000" font-family="sans-serif" font-size="14" lengthAdjust="spacing" textLength="292.2295" x="29.5" y="1063.1113">+SubscriptionPlans : DbSet&lt;SubscriptionPlan&gt;</text><text fill="#000000" font-family="sans-serif" font-size="14" lengthAdjust="spacing" textLength="141.2236" x="29.5" y="1080.7207">+Users : DbSet&lt;User&gt;</text><text fill="#000000" font-family="sans-serif" font-size="14" lengthAdjust="spacing" textLength="295.3057" x="29.5" y="1098.3301">+UserSubscriptions : DbSet&lt;UserSubscription&gt;</text><line style="stroke:#181818;stroke-width:0.5;" x1="24.5" x2="357.833" y1="1105.4063" y2="1105.4063"/></g><!--class ISubscriptionPlanRepository--><g id="elem_ISubscriptionPlanRepository"><rect codeLine="174" fill="#F1F1F1" height="93.9219" id="ISubscriptionPlanRepository" rx="2.5" ry="2.5" style="stroke:#181818;stroke-width:0.5;" width="329.4883" x="366.5" y="610.1094"/><ellipse cx="439.0601" cy="631.4609" fill="#B4A7E5" rx="11" ry="11" style="stroke:#181818;stroke-width:1;"/><path d="M440.0132,628.1016 L440.0132,634.7578 L441.7319,634.7578 Q442.3413,634.7578 442.6069,634.9922 Q442.8726,635.2266 442.8726,635.6172 Q442.8726,635.9922 442.6069,636.2266 Q442.3413,636.4609 441.7319,636.4609 L436.5913,636.4609 Q435.9819,636.4609 435.7163,636.2266 Q435.4507,635.9922 435.4507,635.6016 Q435.4507,635.2266 435.7163,634.9922 Q435.9819,634.7578 436.5913,634.7578 L438.3101,634.7578 L438.3101,628.1016 L436.5913,628.1016 Q435.9819,628.1016 435.7163,627.8672 Q435.4507,627.6328 435.4507,627.2422 Q435.4507,626.8672 435.7163,626.6328 Q435.9819,626.3984 436.5913,626.3984 L441.7319,626.3984 Q442.3413,626.3984 442.6069,626.6328 Q442.8726,626.8672 442.8726,627.2422 Q442.8726,627.6328 442.6069,627.8672 Q442.3413,628.1016 441.7319,628.1016 L440.0132,628.1016 Z " fill="#000000"/><text fill="#000000" font-family="sans-serif" font-size="12" font-style="italic" lengthAdjust="spacing" textLength="68.7012" x="513.1436" y="627.5664">&#171;irepository&#187;</text><text fill="#000000" font-family="sans-serif" font-size="14" font-style="italic" lengthAdjust="spacing" textLength="175.8682" x="459.5601" y="644.7363">ISubscriptionPlanRepository</text><line style="stroke:#181818;stroke-width:0.5;" x1="367.5" x2="694.9883" y1="652.8125" y2="652.8125"/><text fill="#000000" font-family="sans-serif" font-size="14" lengthAdjust="spacing" textLength="317.4883" x="372.5" y="671.3457">// Inherits from IRepositoryBase&lt;SubscriptionPlan&gt;</text><line style="stroke:#181818;stroke-width:0.5;" x1="367.5" x2="694.9883" y1="678.4219" y2="678.4219"/><text fill="#000000" font-family="sans-serif" font-size="14" lengthAdjust="spacing" textLength="257.1748" x="372.5" y="696.9551">+DeleteSubscriptionPlan(id : Guid) : Task</text></g><!--class SubscriptionPlanRepository--><g id="elem_SubscriptionPlanRepository"><rect codeLine="181" fill="#F1F1F1" height="129.1406" id="SubscriptionPlanRepository" rx="2.5" ry="2.5" style="stroke:#181818;stroke-width:0.5;" width="349.333" x="393.5" y="931.6094"/><ellipse cx="477.9272" cy="952.9609" fill="#ADD1B2" rx="11" ry="11" style="stroke:#181818;stroke-width:1;"/><path d="M480.6929,948.8359 Q480.8491,948.6172 481.0366,948.5078 Q481.2241,948.3984 481.4429,948.3984 Q481.8179,948.3984 482.0522,948.6641 Q482.2866,948.9141 482.2866,949.5234 L482.2866,950.9766 Q482.2866,951.5859 482.0522,951.8516 Q481.8179,952.1172 481.4429,952.1172 Q481.0991,952.1172 480.896,951.9141 Q480.6929,951.7266 480.5835,951.2109 Q480.5366,950.8516 480.3491,950.6641 Q480.021,950.2891 479.4116,950.0703 Q478.8022,949.8516 478.1772,949.8516 Q477.4116,949.8516 476.771,950.1797 Q476.146,950.5078 475.646,951.2578 Q475.1616,952.0078 475.1616,953.0391 L475.1616,954.1328 Q475.1616,955.3672 476.0522,956.1953 Q476.9429,957.0078 478.5366,957.0078 Q479.4741,957.0078 480.1304,956.7578 Q480.521,956.6016 480.9429,956.1641 Q481.2085,955.8984 481.3491,955.8203 Q481.5054,955.7422 481.7085,955.7422 Q482.0366,955.7422 482.2866,956.0078 Q482.5522,956.2578 482.5522,956.6016 Q482.5522,956.9453 482.2085,957.3516 Q481.7085,957.9297 480.9116,958.2578 Q479.8335,958.7109 478.5366,958.7109 Q477.021,958.7109 475.8179,958.0859 Q474.8335,957.5859 474.146,956.5234 Q473.4585,955.4453 473.4585,954.1641 L473.4585,953.0078 Q473.4585,951.6797 474.0679,950.5391 Q474.6929,949.3828 475.7866,948.7734 Q476.8804,948.1484 478.1147,948.1484 Q478.8491,948.1484 479.4897,948.3203 Q480.146,948.4766 480.6929,948.8359 Z " fill="#000000"/><text fill="#000000" font-family="sans-serif" font-size="12" font-style="italic" lengthAdjust="spacing" textLength="66.0352" x="551.3989" y="949.0664">&#171;repository&#187;</text><text fill="#000000" font-family="sans-serif" font-size="14" lengthAdjust="spacing" textLength="171.9785" x="498.4272" y="966.2363">SubscriptionPlanRepository</text><line style="stroke:#181818;stroke-width:0.5;" x1="394.5" x2="741.833" y1="974.3125" y2="974.3125"/><text fill="#000000" font-family="sans-serif" font-size="14" lengthAdjust="spacing" textLength="160.3027" x="399.5" y="992.8457">-_context : InSyncContext</text><text fill="#000000" font-family="sans-serif" font-size="14" lengthAdjust="spacing" textLength="313.5986" x="399.5" y="1010.4551">// Inherits from RepositoryBase&lt;SubscriptionPlan&gt;</text><line style="stroke:#181818;stroke-width:0.5;" x1="394.5" x2="741.833" y1="1017.5313" y2="1017.5313"/><text fill="#000000" font-family="sans-serif" font-size="14" lengthAdjust="spacing" textLength="337.333" x="399.5" y="1036.0645">+SubscriptionPlanRepository(context : InSyncContext)</text><text fill="#000000" font-family="sans-serif" font-size="14" lengthAdjust="spacing" textLength="257.1748" x="399.5" y="1053.6738">+DeleteSubscriptionPlan(id : Guid) : Task</text></g><!--class IUserRepository--><g id="elem_IUserRepository"><rect codeLine="190" fill="#F1F1F1" height="76.3125" id="IUserRepository" rx="2.5" ry="2.5" style="stroke:#181818;stroke-width:0.5;" width="253.9854" x="731" y="619.1094"/><ellipse cx="803.5601" cy="640.4609" fill="#B4A7E5" rx="11" ry="11" style="stroke:#181818;stroke-width:1;"/><path d="M804.5132,637.1016 L804.5132,643.7578 L806.2319,643.7578 Q806.8413,643.7578 807.1069,643.9922 Q807.3726,644.2266 807.3726,644.6172 Q807.3726,644.9922 807.1069,645.2266 Q806.8413,645.4609 806.2319,645.4609 L801.0913,645.4609 Q800.4819,645.4609 800.2163,645.2266 Q799.9507,644.9922 799.9507,644.6016 Q799.9507,644.2266 800.2163,643.9922 Q800.4819,643.7578 801.0913,643.7578 L802.8101,643.7578 L802.8101,637.1016 L801.0913,637.1016 Q800.4819,637.1016 800.2163,636.8672 Q799.9507,636.6328 799.9507,636.2422 Q799.9507,635.8672 800.2163,635.6328 Q800.4819,635.3984 801.0913,635.3984 L806.2319,635.3984 Q806.8413,635.3984 807.1069,635.6328 Q807.3726,635.8672 807.3726,636.2422 Q807.3726,636.6328 807.1069,636.8672 Q806.8413,637.1016 806.2319,637.1016 L804.5132,637.1016 Z " fill="#000000"/><text fill="#000000" font-family="sans-serif" font-size="12" font-style="italic" lengthAdjust="spacing" textLength="68.7012" x="839.8921" y="636.5664">&#171;irepository&#187;</text><text fill="#000000" font-family="sans-serif" font-size="14" font-style="italic" lengthAdjust="spacing" textLength="100.3652" x="824.0601" y="653.7363">IUserRepository</text><line style="stroke:#181818;stroke-width:0.5;" x1="732" x2="983.9854" y1="661.8125" y2="661.8125"/><text fill="#000000" font-family="sans-serif" font-size="14" lengthAdjust="spacing" textLength="241.9854" x="737" y="680.3457">// Inherits from IRepositoryBase&lt;User&gt;</text><line style="stroke:#181818;stroke-width:0.5;" x1="732" x2="983.9854" y1="687.4219" y2="687.4219"/></g><!--class UserRepository--><g id="elem_UserRepository"><rect codeLine="196" fill="#F1F1F1" height="111.5313" id="UserRepository" rx="2.5" ry="2.5" style="stroke:#181818;stroke-width:0.5;" width="273.8301" x="778" y="940.1094"/><ellipse cx="862.4272" cy="961.4609" fill="#ADD1B2" rx="11" ry="11" style="stroke:#181818;stroke-width:1;"/><path d="M865.1929,957.3359 Q865.3491,957.1172 865.5366,957.0078 Q865.7241,956.8984 865.9429,956.8984 Q866.3179,956.8984 866.5522,957.1641 Q866.7866,957.4141 866.7866,958.0234 L866.7866,959.4766 Q866.7866,960.0859 866.5522,960.3516 Q866.3179,960.6172 865.9429,960.6172 Q865.5991,960.6172 865.396,960.4141 Q865.1929,960.2266 865.0835,959.7109 Q865.0366,959.3516 864.8491,959.1641 Q864.521,958.7891 863.9116,958.5703 Q863.3022,958.3516 862.6772,958.3516 Q861.9116,958.3516 861.271,958.6797 Q860.646,959.0078 860.146,959.7578 Q859.6616,960.5078 859.6616,961.5391 L859.6616,962.6328 Q859.6616,963.8672 860.5522,964.6953 Q861.4429,965.5078 863.0366,965.5078 Q863.9741,965.5078 864.6304,965.2578 Q865.021,965.1016 865.4429,964.6641 Q865.7085,964.3984 865.8491,964.3203 Q866.0054,964.2422 866.2085,964.2422 Q866.5366,964.2422 866.7866,964.5078 Q867.0522,964.7578 867.0522,965.1016 Q867.0522,965.4453 866.7085,965.8516 Q866.2085,966.4297 865.4116,966.7578 Q864.3335,967.2109 863.0366,967.2109 Q861.521,967.2109 860.3179,966.5859 Q859.3335,966.0859 858.646,965.0234 Q857.9585,963.9453 857.9585,962.6641 L857.9585,961.5078 Q857.9585,960.1797 858.5679,959.0391 Q859.1929,957.8828 860.2866,957.2734 Q861.3804,956.6484 862.6147,956.6484 Q863.3491,956.6484 863.9897,956.8203 Q864.646,956.9766 865.1929,957.3359 Z " fill="#000000"/><text fill="#000000" font-family="sans-serif" font-size="12" font-style="italic" lengthAdjust="spacing" textLength="66.0352" x="898.1475" y="957.5664">&#171;repository&#187;</text><text fill="#000000" font-family="sans-serif" font-size="14" lengthAdjust="spacing" textLength="96.4756" x="882.9272" y="974.7363">UserRepository</text><line style="stroke:#181818;stroke-width:0.5;" x1="779" x2="1050.8301" y1="982.8125" y2="982.8125"/><text fill="#000000" font-family="sans-serif" font-size="14" lengthAdjust="spacing" textLength="160.3027" x="784" y="1001.3457">-_context : InSyncContext</text><text fill="#000000" font-family="sans-serif" font-size="14" lengthAdjust="spacing" textLength="238.0957" x="784" y="1018.9551">// Inherits from RepositoryBase&lt;User&gt;</text><line style="stroke:#181818;stroke-width:0.5;" x1="779" x2="1050.8301" y1="1026.0313" y2="1026.0313"/><text fill="#000000" font-family="sans-serif" font-size="14" lengthAdjust="spacing" textLength="261.8301" x="784" y="1044.5645">+UserRepository(context : InSyncContext)</text></g><!--class AddSubscriptionPlanDto--><g id="elem_AddSubscriptionPlanDto"><rect codeLine="385" fill="#F1F1F1" height="322.8438" id="AddSubscriptionPlanDto" rx="2.5" ry="2.5" style="stroke:#181818;stroke-width:0.5;" width="239.5889" x="1020" y="495.6094"/><ellipse cx="1060.124" cy="516.9609" fill="#ADD1B2" rx="11" ry="11" style="stroke:#181818;stroke-width:1;"/><path d="M1062.8896,512.8359 Q1063.0458,512.6172 1063.2333,512.5078 Q1063.4208,512.3984 1063.6396,512.3984 Q1064.0146,512.3984 1064.249,512.6641 Q1064.4833,512.9141 1064.4833,513.5234 L1064.4833,514.9766 Q1064.4833,515.5859 1064.249,515.8516 Q1064.0146,516.1172 1063.6396,516.1172 Q1063.2958,516.1172 1063.0927,515.9141 Q1062.8896,515.7266 1062.7802,515.2109 Q1062.7333,514.8516 1062.5458,514.6641 Q1062.2177,514.2891 1061.6083,514.0703 Q1060.999,513.8516 1060.374,513.8516 Q1059.6083,513.8516 1058.9677,514.1797 Q1058.3427,514.5078 1057.8427,515.2578 Q1057.3583,516.0078 1057.3583,517.0391 L1057.3583,518.1328 Q1057.3583,519.3672 1058.249,520.1953 Q1059.1396,521.0078 1060.7333,521.0078 Q1061.6708,521.0078 1062.3271,520.7578 Q1062.7177,520.6016 1063.1396,520.1641 Q1063.4052,519.8984 1063.5458,519.8203 Q1063.7021,519.7422 1063.9052,519.7422 Q1064.2333,519.7422 1064.4833,520.0078 Q1064.749,520.2578 1064.749,520.6016 Q1064.749,520.9453 1064.4052,521.3516 Q1063.9052,521.9297 1063.1083,522.2578 Q1062.0302,522.7109 1060.7333,522.7109 Q1059.2177,522.7109 1058.0146,522.0859 Q1057.0302,521.5859 1056.3427,520.5234 Q1055.6552,519.4453 1055.6552,518.1641 L1055.6552,517.0078 Q1055.6552,515.6797 1056.2646,514.5391 Q1056.8896,513.3828 1057.9833,512.7734 Q1059.0771,512.1484 1060.3115,512.1484 Q1061.0458,512.1484 1061.6865,512.3203 Q1062.3427,512.4766 1062.8896,512.8359 Z " fill="#000000"/><text fill="#000000" font-family="sans-serif" font-size="12" font-style="italic" lengthAdjust="spacing" textLength="30.0293" x="1140.5713" y="513.0664">&#171;dto&#187;</text><text fill="#000000" font-family="sans-serif" font-size="14" lengthAdjust="spacing" textLength="151.7578" x="1079.7071" y="530.2363">AddSubscriptionPlanDto</text><line style="stroke:#181818;stroke-width:0.5;" x1="1021" x2="1258.5889" y1="538.3125" y2="538.3125"/><text fill="#000000" font-family="sans-serif" font-size="14" lengthAdjust="spacing" textLength="175.4648" x="1026" y="556.8457">+SubscriptionsName : string</text><text fill="#000000" font-family="sans-serif" font-size="14" lengthAdjust="spacing" textLength="86.0029" x="1026" y="574.4551">+Status : bool</text><text fill="#000000" font-family="sans-serif" font-size="14" lengthAdjust="spacing" textLength="99.9824" x="1026" y="592.0645">+Price : decimal</text><text fill="#000000" font-family="sans-serif" font-size="14" lengthAdjust="spacing" textLength="90.6514" x="1026" y="609.6738">+UserId : Guid</text><text fill="#000000" font-family="sans-serif" font-size="14" lengthAdjust="spacing" textLength="103.1133" x="1026" y="627.2832">+Content : string</text><text fill="#000000" font-family="sans-serif" font-size="14" lengthAdjust="spacing" textLength="111.6514" x="1026" y="644.8926">+MaxProjects : int</text><text fill="#000000" font-family="sans-serif" font-size="14" lengthAdjust="spacing" textLength="114.7754" x="1026" y="662.502">+MaxAssets : long</text><text fill="#000000" font-family="sans-serif" font-size="14" lengthAdjust="spacing" textLength="123.334" x="1026" y="680.1113">+MaxScenarios : int</text><text fill="#000000" font-family="sans-serif" font-size="14" lengthAdjust="spacing" textLength="142.7617" x="1026" y="697.7207">+MaxUsersAccess : int</text><text fill="#000000" font-family="sans-serif" font-size="14" lengthAdjust="spacing" textLength="124.9063" x="1026" y="715.3301">+StorageLimit : long</text><text fill="#000000" font-family="sans-serif" font-size="14" lengthAdjust="spacing" textLength="136.582" x="1026" y="732.9395">+SupportLevel : string</text><text fill="#000000" font-family="sans-serif" font-size="14" lengthAdjust="spacing" textLength="227.5889" x="1026" y="750.5488">+CustomFeaturesDescription : string</text><text fill="#000000" font-family="sans-serif" font-size="14" lengthAdjust="spacing" textLength="176.2852" x="1026" y="768.1582">+DataRetentionPeriod : long</text><text fill="#000000" font-family="sans-serif" font-size="14" lengthAdjust="spacing" textLength="138.9063" x="1026" y="785.7676">+PrioritySupport : bool</text><text fill="#000000" font-family="sans-serif" font-size="14" lengthAdjust="spacing" textLength="156.0371" x="1026" y="803.377">+MonthlyReporting : bool</text><line style="stroke:#181818;stroke-width:0.5;" x1="1021" x2="1258.5889" y1="810.4531" y2="810.4531"/></g><!--class SubscriptionPlan--><g id="elem_SubscriptionPlan"><rect codeLine="118" fill="#F1F1F1" height="428.5" id="SubscriptionPlan" rx="2.5" ry="2.5" style="stroke:#181818;stroke-width:0.5;" width="333.7607" x="390" y="1191.1094"/><ellipse cx="500.0996" cy="1212.4609" fill="#ADD1B2" rx="11" ry="11" style="stroke:#181818;stroke-width:1;"/><path d="M502.8652,1208.3359 Q503.0215,1208.1172 503.209,1208.0078 Q503.3965,1207.8984 503.6152,1207.8984 Q503.9902,1207.8984 504.2246,1208.1641 Q504.459,1208.4141 504.459,1209.0234 L504.459,1210.4766 Q504.459,1211.0859 504.2246,1211.3516 Q503.9902,1211.6172 503.6152,1211.6172 Q503.2715,1211.6172 503.0684,1211.4141 Q502.8652,1211.2266 502.7559,1210.7109 Q502.709,1210.3516 502.5215,1210.1641 Q502.1934,1209.7891 501.584,1209.5703 Q500.9746,1209.3516 500.3496,1209.3516 Q499.584,1209.3516 498.9434,1209.6797 Q498.3184,1210.0078 497.8184,1210.7578 Q497.334,1211.5078 497.334,1212.5391 L497.334,1213.6328 Q497.334,1214.8672 498.2246,1215.6953 Q499.1152,1216.5078 500.709,1216.5078 Q501.6465,1216.5078 502.3027,1216.2578 Q502.6934,1216.1016 503.1152,1215.6641 Q503.3809,1215.3984 503.5215,1215.3203 Q503.6777,1215.2422 503.8809,1215.2422 Q504.209,1215.2422 504.459,1215.5078 Q504.7246,1215.7578 504.7246,1216.1016 Q504.7246,1216.4453 504.3809,1216.8516 Q503.8809,1217.4297 503.084,1217.7578 Q502.0059,1218.2109 500.709,1218.2109 Q499.1934,1218.2109 497.9902,1217.5859 Q497.0059,1217.0859 496.3184,1216.0234 Q495.6309,1214.9453 495.6309,1213.6641 L495.6309,1212.5078 Q495.6309,1211.1797 496.2402,1210.0391 Q496.8652,1208.8828 497.959,1208.2734 Q499.0527,1207.6484 500.2871,1207.6484 Q501.0215,1207.6484 501.6621,1207.8203 Q502.3184,1207.9766 502.8652,1208.3359 Z " fill="#000000"/><text fill="#000000" font-family="sans-serif" font-size="12" font-style="italic" lengthAdjust="spacing" textLength="46.0313" x="550.1147" y="1208.5664">&#171;model&#187;</text><text fill="#000000" font-family="sans-serif" font-size="14" lengthAdjust="spacing" textLength="105.0615" x="520.5996" y="1225.7363">SubscriptionPlan</text><line style="stroke:#181818;stroke-width:0.5;" x1="391" x2="722.7607" y1="1233.8125" y2="1233.8125"/><text fill="#000000" font-family="sans-serif" font-size="14" lengthAdjust="spacing" textLength="61.0928" x="396" y="1252.3457">+Id : Guid</text><text fill="#000000" font-family="sans-serif" font-size="14" lengthAdjust="spacing" textLength="175.4648" x="396" y="1269.9551">+SubscriptionsName : string</text><text fill="#000000" font-family="sans-serif" font-size="14" lengthAdjust="spacing" textLength="86.0029" x="396" y="1287.5645">+Status : bool</text><text fill="#000000" font-family="sans-serif" font-size="14" lengthAdjust="spacing" textLength="99.9824" x="396" y="1305.1738">+Price : decimal</text><text fill="#000000" font-family="sans-serif" font-size="14" lengthAdjust="spacing" textLength="90.6514" x="396" y="1322.7832">+UserId : Guid</text><text fill="#000000" font-family="sans-serif" font-size="14" lengthAdjust="spacing" textLength="103.1133" x="396" y="1340.3926">+Content : string</text><text fill="#000000" font-family="sans-serif" font-size="14" lengthAdjust="spacing" textLength="159.9063" x="396" y="1358.002">+DateCreated : DateTime</text><text fill="#000000" font-family="sans-serif" font-size="14" lengthAdjust="spacing" textLength="163.0303" x="396" y="1375.6113">+DateUpdated : DateTime</text><text fill="#000000" font-family="sans-serif" font-size="14" lengthAdjust="spacing" textLength="111.6514" x="396" y="1393.2207">+MaxProjects : int</text><text fill="#000000" font-family="sans-serif" font-size="14" lengthAdjust="spacing" textLength="114.7754" x="396" y="1410.8301">+MaxAssets : long</text><text fill="#000000" font-family="sans-serif" font-size="14" lengthAdjust="spacing" textLength="123.334" x="396" y="1428.4395">+MaxScenarios : int</text><text fill="#000000" font-family="sans-serif" font-size="14" lengthAdjust="spacing" textLength="142.7617" x="396" y="1446.0488">+MaxUsersAccess : int</text><text fill="#000000" font-family="sans-serif" font-size="14" lengthAdjust="spacing" textLength="124.9063" x="396" y="1463.6582">+StorageLimit : long</text><text fill="#000000" font-family="sans-serif" font-size="14" lengthAdjust="spacing" textLength="136.582" x="396" y="1481.2676">+SupportLevel : string</text><text fill="#000000" font-family="sans-serif" font-size="14" lengthAdjust="spacing" textLength="227.5889" x="396" y="1498.877">+CustomFeaturesDescription : string</text><text fill="#000000" font-family="sans-serif" font-size="14" lengthAdjust="spacing" textLength="176.2852" x="396" y="1516.4863">+DataRetentionPeriod : long</text><text fill="#000000" font-family="sans-serif" font-size="14" lengthAdjust="spacing" textLength="138.9063" x="396" y="1534.0957">+PrioritySupport : bool</text><text fill="#000000" font-family="sans-serif" font-size="14" lengthAdjust="spacing" textLength="156.0371" x="396" y="1551.7051">+MonthlyReporting : bool</text><text fill="#000000" font-family="sans-serif" font-size="14" lengthAdjust="spacing" textLength="78.9619" x="396" y="1569.3145">+User : User</text><text fill="#000000" font-family="sans-serif" font-size="14" lengthAdjust="spacing" textLength="321.7607" x="396" y="1586.9238">+UserSubscriptions : ICollection&lt;UserSubscription&gt;</text><line style="stroke:#181818;stroke-width:0.5;" x1="391" x2="722.7607" y1="1594" y2="1594"/><text fill="#000000" font-family="sans-serif" font-size="14" lengthAdjust="spacing" textLength="122.5615" x="396" y="1612.5332">+SubscriptionPlan()</text></g><!--class User--><g id="elem_User"><rect codeLine="144" fill="#F1F1F1" height="463.7188" id="User" rx="2.5" ry="2.5" style="stroke:#181818;stroke-width:0.5;" width="333.7607" x="759" y="1173.6094"/><ellipse cx="900.6147" cy="1194.9609" fill="#ADD1B2" rx="11" ry="11" style="stroke:#181818;stroke-width:1;"/><path d="M903.3804,1190.8359 Q903.5366,1190.6172 903.7241,1190.5078 Q903.9116,1190.3984 904.1304,1190.3984 Q904.5054,1190.3984 904.7397,1190.6641 Q904.9741,1190.9141 904.9741,1191.5234 L904.9741,1192.9766 Q904.9741,1193.5859 904.7397,1193.8516 Q904.5054,1194.1172 904.1304,1194.1172 Q903.7866,1194.1172 903.5835,1193.9141 Q903.3804,1193.7266 903.271,1193.2109 Q903.2241,1192.8516 903.0366,1192.6641 Q902.7085,1192.2891 902.0991,1192.0703 Q901.4897,1191.8516 900.8647,1191.8516 Q900.0991,1191.8516 899.4585,1192.1797 Q898.8335,1192.5078 898.3335,1193.2578 Q897.8491,1194.0078 897.8491,1195.0391 L897.8491,1196.1328 Q897.8491,1197.3672 898.7397,1198.1953 Q899.6304,1199.0078 901.2241,1199.0078 Q902.1616,1199.0078 902.8179,1198.7578 Q903.2085,1198.6016 903.6304,1198.1641 Q903.896,1197.8984 904.0366,1197.8203 Q904.1929,1197.7422 904.396,1197.7422 Q904.7241,1197.7422 904.9741,1198.0078 Q905.2397,1198.2578 905.2397,1198.6016 Q905.2397,1198.9453 904.896,1199.3516 Q904.396,1199.9297 903.5991,1200.2578 Q902.521,1200.7109 901.2241,1200.7109 Q899.7085,1200.7109 898.5054,1200.0859 Q897.521,1199.5859 896.8335,1198.5234 Q896.146,1197.4453 896.146,1196.1641 L896.146,1195.0078 Q896.146,1193.6797 896.7554,1192.5391 Q897.3804,1191.3828 898.4741,1190.7734 Q899.5679,1190.1484 900.8022,1190.1484 Q901.5366,1190.1484 902.1772,1190.3203 Q902.8335,1190.4766 903.3804,1190.8359 Z " fill="#000000"/><text fill="#000000" font-family="sans-serif" font-size="12" font-style="italic" lengthAdjust="spacing" textLength="46.0313" x="919.1147" y="1191.0664">&#171;model&#187;</text><text fill="#000000" font-family="sans-serif" font-size="14" lengthAdjust="spacing" textLength="29.5586" x="927.3511" y="1208.2363">User</text><line style="stroke:#181818;stroke-width:0.5;" x1="760" x2="1091.7607" y1="1216.3125" y2="1216.3125"/><text fill="#000000" font-family="sans-serif" font-size="14" lengthAdjust="spacing" textLength="61.0928" x="765" y="1234.8457">+Id : Guid</text><text fill="#000000" font-family="sans-serif" font-size="14" lengthAdjust="spacing" textLength="127.9824" x="765" y="1252.4551">+UserIdClerk : string</text><text fill="#000000" font-family="sans-serif" font-size="14" lengthAdjust="spacing" textLength="120.9824" x="765" y="1270.0645">+UserName : string</text><text fill="#000000" font-family="sans-serif" font-size="14" lengthAdjust="spacing" textLength="148.2305" x="765" y="1287.6738">+PasswordHash : string</text><text fill="#000000" font-family="sans-serif" font-size="14" lengthAdjust="spacing" textLength="89.0859" x="765" y="1305.2832">+Email : string</text><text fill="#000000" font-family="sans-serif" font-size="14" lengthAdjust="spacing" textLength="137.3271" x="765" y="1322.8926">+DisplayName : string</text><text fill="#000000" font-family="sans-serif" font-size="14" lengthAdjust="spacing" textLength="145.8994" x="765" y="1340.502">+EmailConfirmed : bool</text><text fill="#000000" font-family="sans-serif" font-size="14" lengthAdjust="spacing" textLength="144.3545" x="765" y="1358.1113">+PhoneNumber : string</text><text fill="#000000" font-family="sans-serif" font-size="14" lengthAdjust="spacing" textLength="154.4717" x="765" y="1375.7207">+LockoutEnd : DateTime</text><text fill="#000000" font-family="sans-serif" font-size="14" lengthAdjust="spacing" textLength="138.9404" x="765" y="1393.3301">+LockoutEnable : bool</text><text fill="#000000" font-family="sans-serif" font-size="14" lengthAdjust="spacing" textLength="151.3545" x="765" y="1410.9395">+AccessFailCount : long</text><text fill="#000000" font-family="sans-serif" font-size="14" lengthAdjust="spacing" textLength="110.8721" x="765" y="1428.5488">+ImageUrl : string</text><text fill="#000000" font-family="sans-serif" font-size="14" lengthAdjust="spacing" textLength="106.21" x="765" y="1446.1582">+Dob : DateTime</text><text fill="#000000" font-family="sans-serif" font-size="14" lengthAdjust="spacing" textLength="105.4375" x="765" y="1463.7676">+Address : string</text><text fill="#000000" font-family="sans-serif" font-size="14" lengthAdjust="spacing" textLength="159.9063" x="765" y="1481.377">+DateCreated : DateTime</text><text fill="#000000" font-family="sans-serif" font-size="14" lengthAdjust="spacing" textLength="163.0303" x="765" y="1498.9863">+DateUpdated : DateTime</text><text fill="#000000" font-family="sans-serif" font-size="14" lengthAdjust="spacing" textLength="103.8789" x="765" y="1516.5957">+StatusUser : int</text><text fill="#000000" font-family="sans-serif" font-size="14" lengthAdjust="spacing" textLength="82.8721" x="765" y="1534.2051">+Role : string</text><text fill="#000000" font-family="sans-serif" font-size="14" lengthAdjust="spacing" textLength="195.7061" x="765" y="1551.8145">+Projects : ICollection&lt;Project&gt;</text><text fill="#000000" font-family="sans-serif" font-size="14" lengthAdjust="spacing" textLength="219.0713" x="765" y="1569.4238">+Scenarios : ICollection&lt;Scenario&gt;</text><text fill="#000000" font-family="sans-serif" font-size="14" lengthAdjust="spacing" textLength="318.6846" x="765" y="1587.0332">+SubscriptionPlans : ICollection&lt;SubscriptionPlan&gt;</text><text fill="#000000" font-family="sans-serif" font-size="14" lengthAdjust="spacing" textLength="321.7607" x="765" y="1604.6426">+UserSubscriptions : ICollection&lt;UserSubscription&gt;</text><line style="stroke:#181818;stroke-width:0.5;" x1="760" x2="1091.7607" y1="1611.7188" y2="1611.7188"/><text fill="#000000" font-family="sans-serif" font-size="14" lengthAdjust="spacing" textLength="47.0586" x="765" y="1630.252">+User()</text></g><!--class IMapper--><g id="elem_IMapper"><rect fill="#F1F1F1" height="48" id="IMapper" rx="2.5" ry="2.5" style="stroke:#181818;stroke-width:0.5;" width="83.3584" x="1295.5" y="633.1094"/><ellipse cx="1310.5" cy="649.1094" fill="#ADD1B2" rx="11" ry="11" style="stroke:#181818;stroke-width:1;"/><path d="M1313.2656,644.9844 Q1313.4219,644.7656 1313.6094,644.6563 Q1313.7969,644.5469 1314.0156,644.5469 Q1314.3906,644.5469 1314.625,644.8125 Q1314.8594,645.0625 1314.8594,645.6719 L1314.8594,647.125 Q1314.8594,647.7344 1314.625,648 Q1314.3906,648.2656 1314.0156,648.2656 Q1313.6719,648.2656 1313.4688,648.0625 Q1313.2656,647.875 1313.1563,647.3594 Q1313.1094,647 1312.9219,646.8125 Q1312.5938,646.4375 1311.9844,646.2188 Q1311.375,646 1310.75,646 Q1309.9844,646 1309.3438,646.3281 Q1308.7188,646.6563 1308.2188,647.4063 Q1307.7344,648.1563 1307.7344,649.1875 L1307.7344,650.2813 Q1307.7344,651.5156 1308.625,652.3438 Q1309.5156,653.1563 1311.1094,653.1563 Q1312.0469,653.1563 1312.7031,652.9063 Q1313.0938,652.75 1313.5156,652.3125 Q1313.7813,652.0469 1313.9219,651.9688 Q1314.0781,651.8906 1314.2813,651.8906 Q1314.6094,651.8906 1314.8594,652.1563 Q1315.125,652.4063 1315.125,652.75 Q1315.125,653.0938 1314.7813,653.5 Q1314.2813,654.0781 1313.4844,654.4063 Q1312.4063,654.8594 1311.1094,654.8594 Q1309.5938,654.8594 1308.3906,654.2344 Q1307.4063,653.7344 1306.7188,652.6719 Q1306.0313,651.5938 1306.0313,650.3125 L1306.0313,649.1563 Q1306.0313,647.8281 1306.6406,646.6875 Q1307.2656,645.5313 1308.3594,644.9219 Q1309.4531,644.2969 1310.6875,644.2969 Q1311.4219,644.2969 1312.0625,644.4688 Q1312.7188,644.625 1313.2656,644.9844 Z " fill="#000000"/><text fill="#000000" font-family="sans-serif" font-size="14" lengthAdjust="spacing" textLength="51.3584" x="1324.5" y="654.8379">IMapper</text><line style="stroke:#181818;stroke-width:0.5;" x1="1296.5" x2="1377.8584" y1="665.1094" y2="665.1094"/><line style="stroke:#181818;stroke-width:0.5;" x1="1296.5" x2="1377.8584" y1="673.1094" y2="673.1094"/></g><!--reverse link ControllerBase to SubscriptionPlansController--><g id="link_ControllerBase_SubscriptionPlansController"><path codeLine="39" d="M1140,158.7694 C1140,174.9794 1140,178.2294 1140,200.3694 " fill="none" id="ControllerBase-backto-SubscriptionPlansController" style="stroke:#181818;stroke-width:1;"/><polygon fill="none" points="1140,140.7694,1134,158.7694,1146,158.7694,1140,140.7694" style="stroke:#181818;stroke-width:1;"/></g><!--link SubscriptionPlansController to AddSubscriptionPlanDto--><g id="link_SubscriptionPlansController_AddSubscriptionPlanDto"><path codeLine="41" d="M1140,435.7194 C1140,455.0394 1140,469.3494 1140,489.5094 " fill="none" id="SubscriptionPlansController-to-AddSubscriptionPlanDto" style="stroke:#181818;stroke-width:1;stroke-dasharray:7.0,7.0;"/><polygon fill="#181818" points="1140,495.5094,1144,486.5094,1140,490.5094,1136,486.5094,1140,495.5094" style="stroke:#181818;stroke-width:1;"/><text fill="#000000" font-family="sans-serif" font-size="13" lengthAdjust="spacing" textLength="155.3843" x="984" y="462.1145">Input add SubscriptionPlan</text></g><!--reverse link IRepositoryBase to RepositoryBase--><g id="link_IRepositoryBase_RepositoryBase"><path codeLine="43" d="M423.76,318.6094 C339.52,318.6094 244,318.6094 244,318.6094 C244,318.6094 244,517.0294 244,610.0394 " fill="none" id="IRepositoryBase-backto-RepositoryBase" style="stroke:#181818;stroke-width:1;stroke-dasharray:7.0,7.0;"/><polygon fill="none" points="441.76,318.6094,423.76,312.6094,423.76,324.6094,441.76,318.6094" style="stroke:#181818;stroke-width:1;"/></g><!--reverse link ISubscriptionPlanRepository to SubscriptionPlanRepository--><g id="link_ISubscriptionPlanRepository_SubscriptionPlanRepository"><path codeLine="44" d="M544.5,722.2494 C544.5,781.3694 544.5,865.0394 544.5,931.4094 " fill="none" id="ISubscriptionPlanRepository-backto-SubscriptionPlanRepository" style="stroke:#181818;stroke-width:1;stroke-dasharray:7.0,7.0;"/><polygon fill="none" points="544.5,704.2494,538.5,722.2494,550.5,722.2494,544.5,704.2494" style="stroke:#181818;stroke-width:1;"/></g><!--reverse link SubscriptionPlanRepository to SubscriptionPlan--><g id="link_SubscriptionPlanRepository_SubscriptionPlan"><path codeLine="45" d="M558.75,1072.9994 C558.75,1108.7394 558.75,1143.3794 558.75,1190.7394 " fill="none" id="SubscriptionPlanRepository-backto-SubscriptionPlan" style="stroke:#181818;stroke-width:1;"/><polygon fill="none" points="558.75,1060.9994,554.75,1066.9994,558.75,1072.9994,562.75,1066.9994,558.75,1060.9994" style="stroke:#181818;stroke-width:1;"/></g><!--reverse link IUserRepository to UserRepository--><g id="link_IUserRepository_UserRepository"><path codeLine="46" d="M916,713.3394 C916,773.0794 916,870.8694 916,940.0594 " fill="none" id="IUserRepository-backto-UserRepository" style="stroke:#181818;stroke-width:1;stroke-dasharray:7.0,7.0;"/><polygon fill="none" points="916,695.3394,910,713.3394,922,713.3394,916,695.3394" style="stroke:#181818;stroke-width:1;"/></g><!--reverse link UserRepository to User--><g id="link_UserRepository_User"><path codeLine="47" d="M915,1064.1894 C915,1096.7194 915,1128.1094 915,1173.3194 " fill="none" id="UserRepository-backto-User" style="stroke:#181818;stroke-width:1;"/><polygon fill="none" points="915,1052.1894,911,1058.1894,915,1064.1894,919,1058.1894,915,1052.1894" style="stroke:#181818;stroke-width:1;"/></g><!--reverse link IRepositoryBase to ISubscriptionPlanRepository--><g id="link_IRepositoryBase_ISubscriptionPlanRepository"><path codeLine="50" d="M531,409.6694 C531,475.8794 531,553.2094 531,609.7794 " fill="none" id="IRepositoryBase-backto-ISubscriptionPlanRepository" style="stroke:#181818;stroke-width:1;"/><polygon fill="none" points="531,391.6694,525,409.6694,537,409.6694,531,391.6694" style="stroke:#181818;stroke-width:1;"/></g><!--reverse link RepositoryBase to SubscriptionPlanRepository--><g id="link_RepositoryBase_SubscriptionPlanRepository"><path codeLine="51" d="M349.67,657.6094 C367.28,657.6094 362.5,657.6094 362.5,657.6094 C362.5,657.6094 362.5,996.6094 362.5,996.6094 C362.5,996.6094 374.75,996.6094 393.27,996.6094 " fill="none" id="RepositoryBase-backto-SubscriptionPlanRepository" style="stroke:#181818;stroke-width:1;"/><polygon fill="none" points="331.67,657.6094,349.67,663.6094,349.67,651.6094,331.67,657.6094" style="stroke:#181818;stroke-width:1;"/></g><!--reverse link IRepositoryBase to IUserRepository--><g id="link_IRepositoryBase_IUserRepository"><path codeLine="52" d="M638.32,318.6094 C716.36,318.6094 799.25,318.6094 799.25,318.6094 C799.25,318.6094 799.25,530.4094 799.25,618.9394 " fill="none" id="IRepositoryBase-backto-IUserRepository" style="stroke:#181818;stroke-width:1;"/><polygon fill="none" points="620.32,318.6094,638.32,324.6094,638.32,312.6094,620.32,318.6094" style="stroke:#181818;stroke-width:1;"/></g><!--reverse link RepositoryBase to UserRepository--><g id="link_RepositoryBase_UserRepository"><path codeLine="53" d="M214.83,722.1594 C214.83,749.8994 214.83,761.6094 214.83,761.6094 C214.83,761.6094 847,761.6094 847,761.6094 C847,761.6094 847,870.5694 847,939.9394 " fill="none" id="RepositoryBase-backto-UserRepository" style="stroke:#181818;stroke-width:1;"/><polygon fill="none" points="214.83,704.1594,208.83,722.1594,220.83,722.1594,214.83,704.1594" style="stroke:#181818;stroke-width:1;"/></g><!--reverse link DbContext to InSyncContext--><g id="link_DbContext_InSyncContext"><path codeLine="56" d="M72.25,704.8994 C72.25,747.4694 72.25,810.1194 72.25,878.3794 " fill="none" id="DbContext-backto-InSyncContext" style="stroke:#181818;stroke-width:1;"/><polygon fill="none" points="72.25,686.8994,66.25,704.8994,78.25,704.8994,72.25,686.8994" style="stroke:#181818;stroke-width:1;"/></g><!--reverse link RepositoryBase to InSyncContext--><g id="link_RepositoryBase_InSyncContext"><path codeLine="57" d="M273.17,716.2494 C273.17,761.1794 273.17,818.6894 273.17,878.5994 " fill="none" id="RepositoryBase-backto-InSyncContext" style="stroke:#181818;stroke-width:1;"/><polygon fill="none" points="273.17,704.2494,269.17,710.2494,273.17,716.2494,277.17,710.2494,273.17,704.2494" style="stroke:#181818;stroke-width:1;"/></g><!--reverse link SubscriptionPlansController to ISubscriptionPlanRepository--><g id="link_SubscriptionPlansController_ISubscriptionPlanRepository"><path codeLine="58" d="M855.17,413.6094 C746.05,413.6094 657.75,413.6094 657.75,413.6094 C657.75,413.6094 657.75,539.0594 657.75,609.8694 " fill="none" id="SubscriptionPlansController-backto-ISubscriptionPlanRepository" style="stroke:#181818;stroke-width:1;"/><polygon fill="none" points="867.17,413.6094,861.17,409.6094,855.17,413.6094,861.17,417.6094,867.17,413.6094" style="stroke:#181818;stroke-width:1;"/></g><!--reverse link SubscriptionPlansController to IUserRepository--><g id="link_SubscriptionPlansController_IUserRepository"><path codeLine="59" d="M926.25,447.7194 C926.25,511.7894 926.25,574.7894 926.25,618.9994 " fill="none" id="SubscriptionPlansController-backto-IUserRepository" style="stroke:#181818;stroke-width:1;"/><polygon fill="none" points="926.25,435.7194,922.25,441.7194,926.25,447.7194,930.25,441.7194,926.25,435.7194" style="stroke:#181818;stroke-width:1;"/></g><!--reverse link SubscriptionPlansController to IMapper--><g id="link_SubscriptionPlansController_IMapper"><path codeLine="60" d="M1337,447.7194 C1337,519.0494 1337,591.9494 1337,632.7894 " fill="none" id="SubscriptionPlansController-backto-IMapper" style="stroke:#181818;stroke-width:1;"/><polygon fill="none" points="1337,435.7194,1333,441.7194,1337,447.7194,1341,441.7194,1337,435.7194" style="stroke:#181818;stroke-width:1;"/></g><!--link SubscriptionPlansController to AdminAuthorizationAttribute--><g id="link_SubscriptionPlansController_AdminAuthorizationAttribute"><path codeLine="61" d="M1395.5,435.7294 C1395.5,522.1694 1395.5,624.6094 1395.5,624.6094 C1395.5,624.6094 1396.4,624.6094 1407.81,624.6094 " fill="none" id="SubscriptionPlansController-to-AdminAuthorizationAttribute" style="stroke:#181818;stroke-width:1;stroke-dasharray:7.0,7.0;"/><polygon fill="#181818" points="1413.81,624.6094,1404.81,620.6094,1408.81,624.6094,1404.81,628.6094,1413.81,624.6094" style="stroke:#181818;stroke-width:1;"/><text fill="#000000" font-family="sans-serif" font-size="13" lengthAdjust="spacing" textLength="20.96" x="1374.5" y="535.8245">use</text></g><!--SRC=[xLXBRnit43vxVyKaEKXg8kK18mWCrwXjsOa2EqqZEzU0sgKbLhjBbUGwKLBtqaFFFVRKzD1BYo8jUYWGe-Z1HV-7_ac7tDKkzw6LwyH03p62sEGyE8zlXiELOnPEY201k3wHSbCfmGQHeZsNXttsai8jHwOiFWkfcaueSA56t3bWogUmwNdGZmRI5MoY60yV-oI4RQqCkemCKSvfR8zGtbLKh3nbaWsOpzJKQRHNLbOcWXqJHPt6DRFWYYARvpI-qalYZicGGifpNMz60v-vZjFOUQ5eAF70bVKls-sLpo8yTZGx_GQ2sUdt86QdtuL3KBFJdw7fdxq6gjaz2IC-U_k72ooO-3IWeP8GZlxv5Ld77Doptu648LT4Eo912Ou4btkqXJxmOC8bqvILZ_10o4uSpjw-2M4yU_kN0dU4-kDVVy8QOE0Kj84VEOtDuL3GeL6zmdCM- -pifxdyaCrEtn0O4GOAYR-vvjVNg2gIz0RkI_GTUg7hHnv5YtzmuOXX6exFNlF4OBF- -rij9MUdlu0tE_qn73OS9mteU8XPAoLjVNqNiqKtDk0LW0Fuqs3pStY8kdsVYeOXN4a8CXf0ftCJ_ssd7D8aFybzPuAQLHJuLuh7oKpYeYepXYqYwKMrR7e12pSZHBHWBqrwqYfmZCvyA9vG0mCkfej2aN8mkk38NgQanlBbUjwJckv01mahvE8EXVrfwBwpbY96ClykhFCILFOE9HNlGK-5cXHbNSKNmGj92v5SAcfaNg1c7zkQVywWNK25Tiw9wwSXgO9e0e8ItzGNo16RDEAwojSmw5uETQt22DKme6aRK1q8xA6zS18f81LNLgouK9XeJgS35LLMWzHOPWdiQiHvHG3YC_DuYS-fm521JUkpab7s4EbrxXYfAg4bBbOVL31keVA2Nx7jQPyoFEMUKr2aFIyprM67ryVYVF8LALagiqyca-GUN8xjXTTLF2Gu9yudEEeurk1sYRETSu6nmfXJwoWAPIC7Ii8h8wX_sl1CLcH85_UIp2NIKHw2QwMCfSpNuJvL9JERBSXpRFg-OSfucYpqw0jKpK9r0wIETVBtc4xxb0XtX1iIyn4EYzeAghQcFQ_9F6I_7p4lnpmFjdLkI9_Rzg9KTIjSeaS7P1iZFpwVmfIzgFbmuk7WNcJFtBcHCKSPQtfKjNZna2xrQKuoVqR2UsB-9mCCEhv4IjTE7cwlJYoSrXMS3SiudV1Cq2yY9gZtX6C5VGnNYPQ_QXdyQK6Rn0xLTECMXV6rQRlCnrTJqhvQQt10v3Xn9nvD4LHK716N5llj-i46UeLsp3UrMqwQy2O-VV0HXXfRZfshyduStlA-XYhwwzEjAThdcOTHizFfM7GiZ7W7hOrZMROHZSpPc1Xv3Pub4J6tTh69jy5Z4gMeplA0Sn-FI7DhNHFhyqtZ_KbYHKvVadlyouwGn9b5ekxke4_Lkbbk9BHj3DCGZUroDufVa7Es8YMLYAJYWUunnum-j_Xp-tFkijwYliVORJEgNgKKmJ_75xH5Z3VczBvBGo8OpnZcEob7iTrbd0NAN49NVyQbLpR5bifpsPGDp8q5vRhfge1fI7DczG5HtGYi-hbv4r4mee9Xh8u43qhbK_PsZfuQunQ0kLqFvkirAfiB15llnUbp-6nbfJ2xbLFnwdoXZI4o3sTPwuL2c5TJ7xPbSPWRQDy1bGyADDPJF3-VvBCf7-7eazxrDfCYAfBpxfNjFnRCrG8UTLb0R8gsgZVFgxLlN0jLrI7xv8NL4J2La2UcRSxNtutoDBjLb2LDqM-wBfKLz3v64flI7WkOgb3UZoOJd3Btw37rKwjjXhWlxbACaA2oI-tneypT9OeyeJe4EZEOLUvL78fnnLjLJPF3ay3dlC8uZlofne9G-WoRvQHcSDKm2FHJk0u8fYnR5h4gbVyVv61GwJO-s9MvOVNgW0Mqm12F30iOIjYhWLujyfO0hnvtos3tdr1tBj0jnTnoo1LIfoTXcRmE5r-ilMqzlRfwMN6z5Z5iz2x2hIOYLfU0DKQLcVkh8gJ9Yo3y64rupeNtWCXH5Nqd8AmoHrsS-dmoNQJNo26gZvW8ij7GEdV4G_ee2WOcg2NnFUwEUQHsmWMGJkbauDEozXYLkyQ4AAn0O2z0T1wAQi_ueFfGl7f43FPBADAuboGWonUJURvKvIuhQXjokK6pF6pQhFcHS_7OcPEf73xVhHgS3nyWFto0_F01yl8-G6ffTRY_1yTuP-kBz7RdpgqxgvrxpJvHy8WVm-sxSElMskhgskfTBDa3qEIMqzpl7O3aaS1v1j_viNAKRpaFoJ619zXSiOsjWLur3_PRqD-PRy9EUCm43_LpsNduT3zcWWTSzITS6UQxg-qjd0_wLA1Py7JVwT8Z4laAHLtkORF3w_PWjttFsIFXCCAElGOqT4nB5rEazVy5]--></g></svg>